# xmcd
#
# Track frame offsets:
#	150
#	14272
#	27897
#	43819
#	57679
#	74697
#	89502
#	103887
#	118072
#	135023
#	150300
#	166817
#	180201
#
# Disc length: 2635 seconds
#
# Revision: 6
# Processed by: cddbd v1.5.2PL0 Copyright (c) Steve Scherf et al.
# Submitted via: audiograbber 1.83.01
#
DISCID=a60a490d
DTITLE=Lady Antebellum - Heart Break
DYEAR=2017
DGENRE=Country
TTITLE0=Heart Break
TTITLE1=You Look Good
TTITLE2=Somebody Else's Heart
TTITLE3=This City
TTITLE4=Hurt
TTITLE5=Army
TTITLE6=Good Time To Be Alive
TTITLE7=Think About You
TTITLE8=Big Love In A Small Town
TTITLE9=The Stars
TTITLE10=Teenage Heart
TTITLE11=Home
TTITLE12=Famous
EXTD=
EXTT0=
EXTT1=
EXTT2=
EXTT3=
EXTT4=
EXTT5=
EXTT6=
EXTT7=
EXTT8=
EXTT9=
EXTT10=
EXTT11=
EXTT12=
PLAYORDER=
